<svg width="242" height="253" viewBox="0 0 242 253" fill="none" xmlns="http://www.w3.org/2000/svg">
<path d="M87.8975 142.586C84.4208 158.613 68.8513 165.468 60.7894 178.37C49.0493 197.22 52.1733 215.918 56.4562 235.12C57.9678 241.874 62.9057 246.612 69.9094 249.031C101.603 260.119 133.447 239.001 133.901 205.586C134.153 186.535 132.742 167.484 131.986 145.358C140.199 153.422 146.397 160.075 153.148 166.022C172.95 183.46 200.613 187.744 220.465 176.757C238.604 166.677 244.248 152.565 239.36 129.381C236.387 115.219 227.015 109.423 205.601 107.961C192.752 107.104 179.853 105.996 167.055 104.736C163.83 104.433 159.749 104.131 158.439 100.603C156.978 96.7221 160.706 94.5549 163.125 92.4885C170.431 86.3901 178.241 80.7957 185.396 74.4957C202.275 59.4765 200.26 24.3477 181.718 6.85886C168.869 -5.28754 139.695 -0.701144 125.738 15.8805C112.738 31.3029 109.161 49.7493 108.758 69.3045C108.606 75.7053 112.486 84.6261 105.331 87.7509C99.033 90.4725 93.4904 83.0133 87.9479 79.4349C80.4403 74.5461 73.4869 68.6997 65.7273 64.2141C44.4641 51.9165 20.0265 61.5429 5.81743 87.2973C-6.12424 109.12 0.526816 128.121 23.8559 140.167C37.4603 147.172 51.5686 148.634 66.3823 146.114C73.5877 144.904 80.793 143.846 87.9983 142.737C88.5022 142.536 89.006 142.384 89.5099 142.183C89.006 142.334 88.4518 142.485 87.8975 142.586Z" fill="#FBDB65"/>
</svg>
